<?xml version="1.0" encoding="utf-8"?>
<!-- Generator: Adobe Illustrator 18.0.0, SVG Export Plug-In . SVG Version: 6.00 Build 0)  -->
<!DOCTYPE svg PUBLIC "-//W3C//DTD SVG 1.1//EN" "http://www.w3.org/Graphics/SVG/1.1/DTD/svg11.dtd">
<svg version="1.1" id="Layer_1" xmlns="http://www.w3.org/2000/svg" xmlns:xlink="http://www.w3.org/1999/xlink" x="0px" y="0px"
	 viewBox="0 0 515 495" enable-background="new 0 0 515 495" xml:space="preserve">
<g>
	<defs>
		<rect id="SVGID_1_" x="-59" y="-67.9" width="623" height="615.9"/>
	</defs>
	<clipPath id="SVGID_2_">
		<use xlink:href="#SVGID_1_"  overflow="visible"/>
	</clipPath>
	<path clip-path="url(#SVGID_2_)" fill="none" stroke="#656565" stroke-width="2.268" stroke-miterlimit="10" d="M400.4,359.1
		c21.8-29.1,34.7-65.1,34.7-104.2c0-96.8-79.4-175.2-177.3-175.2c-97.9,0-177.3,78.4-177.3,175.2c0,39.2,13,75.4,35.1,104.6"/>
	<path clip-path="url(#SVGID_2_)" fill="none" stroke="#656565" stroke-width="2.268" stroke-miterlimit="10" d="M399.7,446.1
		c60.8-43.1,100.2-112.7,100.2-191.4c0-130.8-109.1-236.8-243.8-236.8S12.4,123.9,12.4,254.7c0,79.9,40.8,150.6,103.3,193.5"/>
	<path clip-path="url(#SVGID_2_)" fill="#5E6574" d="M253.4,324.9c-12.7-13.1-24.9-25.5-37.4-38.4c-13.2,13.4-25.3,25.7-37.4,38.1
		c-0.5-0.2-1-0.4-1.5-0.6c-0.2-1.8-0.5-3.7-0.5-5.5c0-27.5,0-54.9-0.1-82.4c0-3.7,1.4-5.1,4.9-5.1c22.8,0,45.6,0,68.4,0
		c2.8,0,4.4,0.9,4.4,4c-0.1,29,0,57.9-0.1,86.9C254.1,322.5,253.8,323.1,253.4,324.9"/>
	<path clip-path="url(#SVGID_2_)" fill="#5E6574" d="M333.2,163.3c-1.9,1.6-2.5,2.5-3.4,2.9c-29.6,11.3-59.1,22.6-88.7,33.9
		c-19.5,7.5-39,15.1-58.5,22.6c-6,2.3-6.9,1.8-7-4.6c-0.1-16.9,0-33.8-0.2-50.7c0-3.8,2-4.4,5-4.4c11-0.1,22-0.3,33-0.2
		c37.8,0,75.6,0.2,113.4,0.3C328.4,163,330.2,163.2,333.2,163.3"/>
	<path clip-path="url(#SVGID_2_)" fill="#5E6574" d="M213.4,158.4c-14.2-0.2-25.6-10.5-25.1-25.3c0.6-15.2,11-24.9,25.3-25
		c13.7-0.1,25.3,10.2,25.4,25.9C239.1,147.5,227.1,158.6,213.4,158.4"/>
	<path clip-path="url(#SVGID_2_)" fill="#5E6574" d="M77.8,150.7c-3.7-3.5-7.4-7.1-11.1-10.6c-5.4-5.1-5.4-5.4-1.2-11.5
		c0.6-0.9,1.4-1.8,2.5-3.2c9.5,5.5,19,10.9,28.4,16.4c3,1.8,1.6,4.2,0,5.8c-1,1-3.5,2-4.6,1.4c-4-1.9-7.7-4.4-11.5-6.7
		c-0.3,0.4-0.7,0.7-1,1.1c3,2.8,6,5.6,9.1,8.4c2,1.8,3.6,3.5,1.9,6.4c-1.6,2.6-3.4,3.9-6.6,2.9c-3.6-1.2-7.3-2.1-11.3-2.2
		c3.1,2,6.2,4.2,9.4,6.1c3,1.7,1.9,3.6,0.7,5.8c-1.3,2.5-2.9,2.8-5.2,1.4c-7.8-4.7-15.8-9.3-23.6-14c-2.1-1.3-4.8-2.8-2.9-5.8
		c1.9-2.9,2.7-7.7,8.3-5.8c4.5,1.6,9.2,2.8,13.8,4.2c1.4,0.4,2.8,0.7,4.2,1.1L77.8,150.7z"/>
	<path clip-path="url(#SVGID_2_)" fill="#5E6574" stroke="#656565" stroke-miterlimit="10" d="M333.9,262.8
		c-25.9-29.6-51.3-30-77.8,0.4c0-5.9,0-10.6,0-15.2c-0.1-4.6-0.3-9.3-0.3-13.9c0-3.1-1.5-4-4.4-4c-18.3,0.1-36.7,0.1-55,0.1
		c-6.5,0-13,0-19.5,0c-0.2-0.9-0.3-1.9-0.5-2.8c52.1-20.3,104.3-40.6,157.4-61.3V262.8z M331.8,256.8v-87.2
		c-49,19.1-96.9,37.7-144.9,56.4c6.1,1,11.9,1.5,17.7,1.4c15.5-0.1,31.1-0.4,46.6-0.5c7.2-0.1,7.4,0,7.6,7c0.2,6.9,0,13.7,0,20.6
		c10.8-10.6,22.5-16.2,37.2-16C310.9,238.7,322,245.6,331.8,256.8"/>
	<path clip-path="url(#SVGID_2_)" fill="#5E6574" d="M81.2,368.4c-6.1,2-12.2,4-18.3,6.1c-5.9,2-6.2-3.7-8.4-6.4
		c-0.5-0.6,1.3-4,2.8-5c8.5-5.5,17.2-10.7,26.4-16.3c1.4,2.1,2.8,4.2,4.6,6.8c-4.9,3.3-9.4,6.3-13.9,9.3c0.1,0.2,0.1,0.4,0.2,0.6
		c4.2-1.4,8.5-2.6,12.7-4.2c3.1-1.2,4.9-0.2,6.8,2.3c2.1,2.9,0.3,4.8-1.4,6.4c-3.3,3.2-6.9,6-10.3,9c0.5,0.5,0.9,1,1.4,1.5
		c3.6-2.5,7.3-5,10.9-7.4c2.6-1.7,4.8-1.9,6.7,1.2c1.6,2.8,1,4.5-1.7,6.1c-7.8,4.7-15.6,9.5-23.2,14.5c-3.1,2-5,1.1-6.6-1.4
		c-1.7-2.6-4.7-4.9-0.9-8.5c4.6-4.3,8.6-9.1,12.9-13.7C81.5,369,81.4,368.7,81.2,368.4"/>
	<path clip-path="url(#SVGID_2_)" fill="#5E6574" d="M42.5,248.6c5,0.4,9.9,0.8,14.9,1.2c3,0.2,5,1.2,4.8,4.8
		c-0.1,3.7-2.4,3.9-5.1,3.7c-8.9-0.6-17.9-1.2-26.8-2c-1.6-0.2-4.1-1.2-4.5-2.4c-0.8-2.6-0.7-5.6,2.6-7.2c6.1-3,12.1-6.2,19.1-9.9
		c-6.5-0.6-11.8-1.2-17.1-1.5c-2.7-0.2-4.1-1-3.9-3.9c0.2-2.7,0.9-4.9,4.4-4.6c9.8,0.7,19.6,1.2,29.3,2.1c1.1,0.1,3.1,2,3,3
		c-0.2,2.1-0.8,4.9-2.3,5.9c-4.3,2.8-9.1,4.8-13.7,7.1c-1.7,0.9-3.5,1.8-5.2,2.7C42.3,248,42.4,248.3,42.5,248.6"/>
	<path clip-path="url(#SVGID_2_)" fill="#5E6574" d="M414.1,367.6c0.8-7,3.4-8.6,9.2-5.7c7.5,3.8,7.8,3.6,12.2-5.9
		c-2.9-1.7-6-3.2-8.6-5.4c-1-0.8-1.4-3.3-1-4.7c0.7-2.2,2.3-4.3,5.3-2.6c8.7,5.1,17.5,10.1,26.1,15.3c0.8,0.5,1.2,3,0.7,4
		c-2.3,4.6-5,9-7.7,13.4c-4.9,8-13.5,8.1-18.4,0c-1.4-2.3-2.9-3.2-5.5-3.8C422.2,371.2,418.2,369.2,414.1,367.6 M449.2,363.2
		c-2.8-0.9-6.2-2.8-6.9-2c-2,2.1-3.2,5.2-4.2,8.1c-0.3,0.8,1.3,2.8,2.4,3.2c1.1,0.3,3.1-0.3,3.9-1.2
		C446.1,369.1,447.3,366.5,449.2,363.2"/>
	<path clip-path="url(#SVGID_2_)" fill="#5E6574" d="M450.4,195.5c-0.4-1.9-1.4-3.6-0.9-4.7c0.7-1.5,2.7-3.8,3.6-3.6
		c5.4,1.3,4.4,7,6.5,10.7c0.4,0.7-1.4,3.6-2.7,4.1c-4.7,2-9.7,3.4-15.6,5.4c-0.4-2.6-0.7-5-1.1-7.8c-5.3-3.6-8-9.4-6.2-16.3
		c2.2-8.4,8.4-13,16.7-14.4c13.4-2.3,23.1,7.1,21.3,20.6c-0.3,2-1.2,4.3-2.6,5.7c-1.2,1.4-3.4,1.8-5.2,2.7c-0.4-2.4-1.7-5.2-0.9-7.1
		c2.8-6.6,0.5-12.5-6-14.1c-7.3-1.7-15.7,4.5-15.5,11.4C442.1,193.3,444.1,195.1,450.4,195.5"/>
	<path clip-path="url(#SVGID_2_)" fill="#5E6574" d="M151.8,94.3c-3.5,5.1-6.3,5.6-9.9,1.6c-6-6.7-6.9-6.7-13.6,0.6
		c2.3,3.3,4.6,6.6,6.9,9.9c-5.5,7.1-6.6,5.7-10.3,0.6c-5-6.9-10.1-13.6-15.3-20.3c-2.2-2.7-1.9-4.5,1-6.5c4.1-2.8,8-6,12.1-8.7
		c7.3-4.8,15.4-0.9,16.6,7.6c0.2,1.5,1.4,3,2.5,4.2C144.9,87,148.2,90.5,151.8,94.3 M122.9,90.4c3.2-2.5,5.6-3.8,7.3-5.8
		c1-1.1,1.1-3.3,0.8-4.9c-0.1-0.9-2.4-2.3-2.9-2c-3,1.7-6.1,3.5-8.3,6.1C119.3,84.4,121.6,87.6,122.9,90.4"/>
	<path clip-path="url(#SVGID_2_)" fill="#5E6574" d="M59.1,197.5c-0.6,0.6-1.1,1-1.2,1.4c-0.8,2.9-1.9,5.5-5.7,4.2
		c-4.5-1.5-1.9-4.7-1.3-7.1c2.1-8.4,2.3-8.4,10.8-6.2c2.6,0.7,5.1,1.3,7.7,2c3.6,0.9,3.3,3,1.7,5.6c-0.7,1.2-1.9,2.7-1.6,3.7
		c1.9,7.4-0.6,13.3-6.6,17.4c-6.5,4.5-13.5,3.8-20.4,0.6c-6.5-3.1-10.7-8.3-10.7-15.5c0-6.6,2.6-12.5,9.1-15.5
		c2.2-1,4.9-1.1,7.8-1.8c0.1,4.5-0.6,7.2-4.4,8.8c-4.5,1.9-6,6.8-4,11.2c3.1,6.9,15.3,9.2,20.6,3.7
		C64.4,206.3,63.8,201.1,59.1,197.5"/>
	<path clip-path="url(#SVGID_2_)" fill="#5E6574" d="M433.1,167.4c-7.8,1.3-16.7-7.1-17-17.8c-0.3-9,10.8-18.6,21.3-18.7
		c9.3-0.1,17.8,8.4,17.6,17.5C454.8,158.4,444.4,167.4,433.1,167.4 M446.6,148c-0.1-5.5-3.7-8.8-9.3-8.6c-6.3,0.1-12.9,5.6-13,10.9
		c-0.1,4.8,4.6,9.6,9.1,9.4C439.6,159.3,446.6,153.1,446.6,148"/>
	<path clip-path="url(#SVGID_2_)" fill="#5E6574" d="M101.4,134.4c-10.9-0.2-20.4-9.6-20.3-19.9c0.2-9.4,8-17.6,16.7-17.6
		c10.8,0,21.5,10.5,21.3,21C118.9,126.8,110.5,134.6,101.4,134.4 M97.9,105.3c-5.2,0.1-8.8,4.1-8.6,9.5c0.2,5.7,7.4,12.2,13.3,11.9
		c4.6-0.2,8.2-4.3,8.2-9C110.6,111.7,103.8,105.2,97.9,105.3"/>
	<path clip-path="url(#SVGID_2_)" fill="#5E6574" d="M213.8,33.7c10.4,0.1,17.6,8.6,17.4,20.6c-0.1,10.3-7.7,17.4-18.4,17.3
		c-9.8-0.1-17.4-9.4-17.2-21.1C195.7,40.3,203,33.6,213.8,33.7 M222.6,53.5c0-7.4-3.8-12.1-9.6-12.2c-5.7,0-9,3.5-9,9.6
		c0,7.4,4.2,12.9,9.8,12.8C219.7,63.5,222.6,60.2,222.6,53.5"/>
	<path clip-path="url(#SVGID_2_)" fill="#5E6574" d="M460.9,286.7c-4.2-0.8-8-1.3-11.5-2.5c-1.5-0.5-3.3-2.7-3.3-4.1
		c0-2.2,0.4-5.2,4.3-4.5c9.9,1.9,19.9,3.5,29.8,5.5c0.9,0.2,2.1,2.4,1.9,3.6c-0.2,1.6-1.2,3.7-2.5,4.5c-1.2,0.7-3.2,0-4.9,0.1
		c-2,0-5.5-0.4-5.8,0.3c-1.2,3-2.3,6.6-1.6,9.5c0.4,1.5,4.6,2.5,7.3,2.8c4.1,0.6,5.3,2.5,3.7,6c-0.5,1.2-2.4,2.7-3.4,2.6
		c-10.3-1.6-20.6-3.4-30.8-5.5c-0.8-0.2-1.8-3.2-1.4-4.6c0.4-1.4,2.3-3.3,3.6-3.3c3.1,0,6.2,1,9.3,1.5c2.2,0.4,3.8-0.1,4-3
		C459.8,292.9,460.4,290.1,460.9,286.7"/>
	<path clip-path="url(#SVGID_2_)" fill="#5E6574" d="M451.9,223.8c0.8,4.8,1.3,8.1,2,11.3c0.6,2.7-0.2,3.8-3,4.5
		c-3,0.7-3.9-0.5-4.3-3.1c-1-6.4-2.2-12.7-3.3-19.1c-0.5-2.7,0.3-4.3,3.4-4.8c9.2-1.4,18.3-3,27.5-4.7c3.5-0.6,5.2,0.3,5.6,4
		c0.8,5.9,2,11.8,3.1,17.6c0.4,2.3,0.4,4.3-2.7,4.8c-3.1,0.5-4.7-0.5-5-3.7c-0.4-3.5-0.9-6.9-1.8-10.3c-0.3-1.1-2.1-2.8-2.5-2.6
		c-1.4,0.6-3.5,1.9-3.6,3.1c-0.2,2.7,0.4,5.6,0.9,8.4c0.5,2.5,1.5,5.1-2.1,6c-3.5,0.8-4.7-0.9-5.1-4.2c-0.2-2.3-1.2-4.5-1.4-6.8
		c-0.2-2.9-1.3-4.8-4.2-3.7C453.9,221.1,452.7,223,451.9,223.8"/>
	<path clip-path="url(#SVGID_2_)" fill="#5E6574" d="M464.2,329.4c-4-3.2-6.3-2.2-7.7,2c-0.8,2.5-1.9,4.9-2.8,7.4
		c-0.8,2.3-1.8,3.7-4.7,2.5c-3-1.1-3.2-3-2.3-5.5c1.3-3.7,2.7-7.4,4-11c-6-3.8-6.7-3.5-8.8,2.3c-1,2.8-1.9,5.7-3.1,8.4
		c-0.9,2.1-2.3,3.6-5.1,2.3c-2.5-1.2-3-2.6-2-5.1c2.3-5.7,4.5-11.4,6.5-17.2c1.2-3.3,2.8-4.4,6.3-3.1c8.5,3.2,17.1,6.3,25.7,9.3
		c3.6,1.2,4.1,2.9,2.6,6.3c-2.3,5.3-3.8,11-5.8,16.4c-0.8,2-1.4,4.5-4.9,3.3c-3.3-1.1-2.9-3.2-2.2-5.5
		C461.2,338,462.7,333.8,464.2,329.4"/>
	<path clip-path="url(#SVGID_2_)" fill="#5E6574" d="M370.5,86.3c-1.3,1.8-2.5,3.3-4.2,5.6c4.1,3,8,5.9,12.1,8.6
		c3.2,2.1,2.6,4.3,0.3,6.4c-0.7,0.7-2.6,1-3.3,0.5c-6.2-4.1-12.4-8.3-18.4-12.8c-0.7-0.6-0.9-3.2-0.2-4.1c5.4-8,10.9-15.9,16.7-23.5
		c0.9-1.2,4.4-1.8,5.8-1c5.4,3.2,10.4,7.1,15.7,10.6c2.5,1.6,2.6,3.6,0.7,5.2c-1.1,0.9-3.6,1.6-4.7,1c-3.4-1.8-6.3-4.4-9.6-6.2
		c-1.1-0.6-3,0.4-4.5,0.7c0.3,1.5,0.1,3.6,1,4.4c3.2,2.8,6.9,5.1,10.3,7.5c-2.6,6.5-2.8,6.6-8,3.2C377,90.4,374,88.6,370.5,86.3"/>
	<path clip-path="url(#SVGID_2_)" fill="#5E6574" d="M159.7,74.5c1.7,6.8,2.1,7,7.8,4.2c2.8-1.4,5.8-2.5,8.6-4
		c2.1-1.1,3.6-1.1,4.8,1.3c1.2,2.4,0.9,4-1.6,5.3c-5.8,2.9-11.5,5.9-17.3,8.8c-3.1,1.6-5,0.9-6.6-2.5C152,80,148,72.5,144.1,65
		c-2-3.9-2.1-6.7,2.7-8.6C152,54.3,157,51.6,162,49c2.7-1.5,4.1-0.8,5.4,1.9c1.3,2.8,0,3.8-2.3,4.8c-2.7,1.2-5.3,2.7-7.9,4.1
		c-4.7,2.5-4.8,3.1-0.8,7.7c3.7-1.7,7.3-3.8,11.2-5.1c1.3-0.5,3.8,0.2,4.7,1.3c1.8,2,1,3.8-1.6,5C166.8,70.5,163.3,72.6,159.7,74.5"
		/>
	<path clip-path="url(#SVGID_2_)" fill="#5E6574" d="M61.9,277.1c2.9,5.6,2.7,9.6-1.4,13.4c-2.9,2.6-5.3,5.9-7.8,8.8
		c2.5,4.2,5.8,2.6,8.8,2c2.8-0.5,5.7-1.9,6.7,2.4c0.8,3.7-0.8,5.3-4.6,6c-8.8,1.6-17.5,3.6-26.3,5.5c-3.1,0.7-4.7-0.5-5.4-3.5
		c-0.6-3,0.2-4.8,3.4-5.4c2.7-0.5,5.4-1.2,8.5-1.9c-5.2-6.5-17.7-6.4-16-19.4c4.8,2.8,9.3,5,13.4,7.9c3,2.1,4.9,1.7,7.1-1
		c3.2-3.9,6.6-7.5,9.9-11.2C59.1,279.6,60.3,278.6,61.9,277.1"/>
	<path clip-path="url(#SVGID_2_)" fill="#5E6574" d="M69.2,313c2.7,3.9,4.3,6.7,0.3,10.2c-1.2,1.1-0.6,5.2,0.3,7.6
		c0.7,2,3.1,4.8,4.6,4.8c5.7-0.2,6.6,3.2,7.3,8.1c-5.6,0.5-10.9,1.3-16.3,1.5c-6.2,0.3-12.3-0.1-18.5,0.3c-4.3,0.2-5-3-5.6-5.7
		c-0.4-1.5,0.7-4,1.9-5.1c7.6-6.8,15.4-13.3,23.1-19.8C67.2,314.1,68.2,313.7,69.2,313 M54.2,335.9c0.2,0.4,0.4,0.9,0.6,1.4
		c2.6-0.6,5.2-1.2,7.8-1.7c-0.5-1.7-0.9-3.4-1.6-5.8c-2.1,1.8-3.4,2.8-4.6,3.8C55.7,334.2,55,335.1,54.2,335.9"/>
	<path clip-path="url(#SVGID_2_)" fill="#5E6574" d="M348,57.2c-1.1,2.1-2,3.7-3,5.7c3.6,1.8,6.8,3.4,10,5c1.9,1,4.1,2,2.6,4.9
		c-1.3,2.3-2.9,3.4-5.7,1.9c-3.1-1.6-6.4-2.8-10-4.4c-1.6,3-3.4,5.8-4.6,8.8c-1.4,3.3-3.2,3.7-6.3,2.3c-3.2-1.4-3.1-3.3-1.8-5.9
		c4.1-8.3,8.1-16.7,12.1-25.1c1.2-2.5,2.7-3.5,5.6-2.1c5.2,2.6,10.5,4.9,15.8,7.4c2.8,1.3,4.2,2.9,2.5,6.2c-1.7,3.4-3.8,1.7-5.8,0.8
		C355.6,61,351.9,59.2,348,57.2"/>
	<path clip-path="url(#SVGID_2_)" fill="#5E6574" d="M251.6,30.5c2.8,0,5.7-0.3,8.4,0.1c1.5,0.2,3.5,1.5,3.9,2.7
		c0.8,2.4-0.5,4.1-3.4,4c-3.3,0-6.7-0.2-9.9,0.2c-1.3,0.2-2.3,2-3.5,3.1c1.1,1,2.1,2.8,3.4,3c2.7,0.5,5.7-0.1,8.4,0.3
		c1.2,0.2,2.8,1.8,2.9,2.9c0.1,1.1-1.1,3.1-2.2,3.4c-2.1,0.8-4.6,1.1-6.8,0.9c-4.8-0.5-6.3,1.6-5.8,6.1c0.2,1.6-0.1,3.3,0.1,5
		c0.4,3.4-1.4,4.5-4.3,4.4c-2.7,0-4.3-1.1-4.3-4.1c-0.1-8.6-0.3-17.2-0.8-25.8c-0.3-4.9,1.7-6.6,6.4-6.1c2.5,0.3,5,0,7.5,0
		C251.6,30.6,251.6,30.5,251.6,30.5"/>
	<path clip-path="url(#SVGID_2_)" fill="#5E6574" d="M294.9,245.7c20.8-0.1,37.3,16.5,37.4,37.3c0.1,21.2-16,37.7-36.8,37.8
		c-21.4,0.1-39.3-17.2-38.2-38.7C258.3,262.9,272.4,246,294.9,245.7 M329.8,283.8c0-20.4-14.9-35.4-35-35.4
		c-19,0-34.6,15.6-34.5,34.7c0,19,14.4,35.5,34.8,35.5C317.9,318.5,330.4,299.4,329.8,283.8"/>
	<path clip-path="url(#SVGID_2_)" fill="#5E6574" d="M461.8,252.7c2.2,0,4.3,0,6.5,0c7.4,0,7.2,0,8.5-7.2c0.2-1.4,2.3-3.2,3.7-3.4
		c1-0.2,3.4,1.9,3.5,3c0.3,8,0.3,16,0,24c0,1.1-2.3,2.9-3.6,2.9c-1.2,0-2.7-1.7-3.6-2.9c-0.5-0.6-0.2-1.9-0.1-2.9
		c0.3-3.4-0.9-4.6-4.6-4.5c-7,0.3-14-0.2-21-0.2c-2.6,0-4.4-0.8-4.1-3.6c0.3-2.4,0.1-5.5,4.4-5.1C454.8,253,458.3,252.7,461.8,252.7
		"/>
	<path clip-path="url(#SVGID_2_)" fill="#5E6574" d="M412.8,101c3.9-5.3,4.7-5.3,8.6-0.8c4.4,5.2,9,10.2,13.2,15.6
		c0.8,1,0.5,4-0.3,4.7c-1,0.8-3.8,0.8-4.8,0c-5.5-4.4-5.3-4.5-10.8,0.4c-4,3.6-8.1,6.9-12,10.5c-2.3,2.1-4.3,3.2-6.7,0.4
		c-2.3-2.7-2-4.7,0.9-7c4.9-3.9,9.5-8.3,14.3-12.4c2.7-2.4,4.4-4.6,0.4-7.4C414.3,104,413.6,102.2,412.8,101"/>
	<path clip-path="url(#SVGID_2_)" fill="#5E6574" d="M294.7,62.6c4.1,0.9,7.8,1.7,11.5,2.5c2.7,0.6,4.6,1.7,3.7,5.2
		c-0.8,3.3-2.7,2.9-5.3,2.3c-5.5-1.3-11-2.3-16.5-3.3c-2.6-0.5-3.9-1.6-3.3-4.4c2-9.4,4-18.8,5.9-28.2c0.7-3.2,2.5-3.6,5.5-3
		c3.2,0.6,3.7,2,3.1,4.8c-1.3,5.8-2.5,11.7-3.7,17.5C295.2,58,295.1,60.1,294.7,62.6"/>
	<path clip-path="url(#SVGID_2_)" fill="#5E6574" d="M296,107.6c12.4-0.8,25.6,10.6,25.5,24.7c-0.1,16.3-10.6,26.5-26.2,26.5
		c-14.1,0-24.9-10-25.4-25.4C269.5,119.1,281.6,107.6,296,107.6 M272.9,133.1c-0.2,14.7,10.9,23.4,22.8,23.3
		c13.9-0.2,22.6-9.3,23.3-22c0.7-13.7-9.9-24.2-23-24.2C282.8,110.2,272.9,119.9,272.9,133.1"/>
	<path clip-path="url(#SVGID_2_)" fill="#5E6574" d="M332.3,44.9c-1.6,5-3,9.6-4.6,14.2c-1.7,4.9-3.6,9.7-5.1,14.6
		c-1,3.3-2.6,4.2-5.9,2.9c-3.1-1.2-3.4-2.9-2.3-5.8c2.9-8.1,5.6-16.3,8.3-24.5c1.6-4.8,4.2-6,7.7-3.7
		C331.3,43.1,331.8,44.2,332.3,44.9"/>
	<path clip-path="url(#SVGID_2_)" fill="#5E6574" d="M51.8,265.7c2.3,0,4.7,0.1,7,0c3.1-0.2,4.5,1.6,4.1,4.2c-0.2,1.4-2,3.4-3.3,3.5
		c-9.9,0.9-19.9,1.5-29.8,2.1c-3.2,0.2-3.3-1.9-3.4-4.3c-0.1-2.6,0.6-4,3.5-4.2c7.3-0.4,14.6-1,21.9-1.5
		C51.8,265.6,51.8,265.6,51.8,265.7"/>
	<path clip-path="url(#SVGID_2_)" fill="#CCCCCC" d="M331.8,256.8c-9.7-11.2-20.9-18.1-35.6-18.3c-14.6-0.2-26.4,5.5-37.2,16
		c0-6.9,0.2-13.7,0-20.6c-0.2-7-0.4-7.1-7.6-7c-15.5,0.1-31.1,0.4-46.6,0.5c-5.8,0-11.6-0.5-17.7-1.4
		c47.9-18.7,95.9-37.3,144.9-56.4V256.8z"/>
	<path clip-path="url(#SVGID_2_)" fill="#CCCCCC" stroke="#656565" stroke-miterlimit="10" d="M329.8,283.8
		c0.6,15.6-11.9,34.7-34.8,34.8c-20.4,0-34.7-16.5-34.8-35.5c0-19.1,15.5-34.6,34.5-34.7C314.9,248.3,329.7,263.4,329.8,283.8"/>
	<path clip-path="url(#SVGID_2_)" fill="#CCCCCC" stroke="#656565" stroke-miterlimit="10" d="M272.9,133.1
		c0-13.2,9.8-22.9,23.1-22.9c13.1,0,23.7,10.5,23,24.2c-0.7,12.7-9.4,21.8-23.3,22C283.8,156.6,272.7,147.9,272.9,133.1"/>
	<path clip-path="url(#SVGID_2_)" fill="#5E6574" stroke="#656565" stroke-miterlimit="10" d="M178.7,359.4
		c2.4,3.7,4.2,7.9,5.5,12.6c1.3,4.7,2,9.3,2,14.1c0,4.8-0.7,9.6-2,14.3c-1.3,4.7-3.1,8.8-5.5,12.4c-2.6,4-6,7-10.1,9
		c-4.1,2-9.9,3.1-17.3,3.1h-17.5v58h-2.1h-1.9V349.5v-2.2h2.2h19.2c6.7,0,12.3,1.1,16.9,3.2C172.7,352.5,176.2,355.5,178.7,359.4
		 M175.3,410.6c2.1-3.4,3.8-7.2,5-11.5c1.2-4.3,1.9-8.7,1.9-13.2c0-4.4-0.6-8.7-1.9-13c-1.2-4.3-2.9-8.1-5-11.5
		c-2.1-3.2-5.2-5.8-9.1-7.6c-4-1.8-8.9-2.7-14.9-2.7h-17.5v69.7h17.5c7.2,0,12.5-0.9,15.8-2.7C170.5,416.3,173.2,413.8,175.3,410.6"
		/>
	<polygon clip-path="url(#SVGID_2_)" fill="#5E6574" stroke="#656565" stroke-miterlimit="10" points="255.2,347.3 255.2,482.7 
		253.1,482.7 251.3,482.7 251.3,424.8 200.2,424.8 200.2,482.7 198.3,482.7 196.3,482.7 196.3,347.3 198.3,347.3 200.2,347.3 
		200.2,421.2 251.3,421.2 251.3,347.3 253.1,347.3 	"/>
	<path clip-path="url(#SVGID_2_)" fill="#5E6574" stroke="#656565" stroke-miterlimit="10" d="M324.8,482.7h-4.1l-8.4-40.8h-32.4
		l-8.8,40.8h-4.1l27.4-135.5h3.2L324.8,482.7z M311.2,438l-15.1-80.5L280.5,438H311.2z M295.4,347.3h0.2h0.4h0.2h0.2h0.4H295.4z"/>
	<path clip-path="url(#SVGID_2_)" fill="#5E6574" stroke="#656565" stroke-miterlimit="10" d="M379.8,356.7
		c4.6,6.8,6.8,14.5,6.7,22.9c0,4-0.5,7.7-1.4,11.1c-0.9,3.4-2.2,6.5-3.7,9.1c-1.6,2.7-3.3,4.9-5.3,6.6c-2,1.7-4.1,3-6.3,3.7
		c2.6,0.4,5.4,1.4,8.5,3.2c3,1.7,5.4,3.9,7.2,6.3c2.5,3.6,4.3,7.6,5.6,12c1.2,4.4,1.9,9,1.9,13.9c0,8.1-1.1,14.5-3.4,19.4
		c-2.3,4.8-5.2,8.6-8.6,11.2c-3.4,2.6-7.1,4.4-11.2,5.2c-4,0.9-7.9,1.3-11.6,1.3h-19.2h-2.2V346.8H360c5.3,0,9.4,0.9,12.3,2.6
		C375.2,351.2,377.7,353.6,379.8,356.7 M340.5,408.5h21.1c3.1,0,6-0.8,8.6-2.3c2.6-1.6,4.8-3.7,6.7-6.4c1.9-2.7,3.3-5.8,4.3-9.3
		c1-3.5,1.5-7.2,1.5-11s-0.5-7.5-1.6-11c-1.1-3.5-2.5-6.5-4.4-9.2c-1.9-2.6-4-4.7-6.5-6.3c-2.5-1.6-5.2-2.3-8.2-2.3h-21.4V408.5z
		 M358,478.7c6.1,0,11.1-0.9,15.2-2.7c4-1.8,7.2-4.2,9.6-7.3c2.4-3,4-6.6,4.9-10.6c0.9-4,1.3-8.2,1.2-12.6
		c-0.2-11.4-2.8-19.8-7.7-25.2c-4.9-5.3-12.6-8-23.2-8h-17.5v66.3H358z"/>
</g>
</svg>
