<?xml version="1.0" encoding="utf-8"?>
<!-- Generator: Adobe Illustrator 18.0.0, SVG Export Plug-In . SVG Version: 6.00 Build 0)  -->
<!DOCTYPE svg PUBLIC "-//W3C//DTD SVG 1.1//EN" "http://www.w3.org/Graphics/SVG/1.1/DTD/svg11.dtd">
<svg version="1.1" id="Layer_1" xmlns="http://www.w3.org/2000/svg" xmlns:xlink="http://www.w3.org/1999/xlink" x="0px" y="0px"
	 viewBox="0 0 1196.9 409.5" enable-background="new 0 0 1196.9 409.5" xml:space="preserve">
<g>
	<path fill="#FFFFFF" stroke="#FFFFFF" stroke-width="0.3317" stroke-miterlimit="10" d="M151,50.6c6.6,10.4,11.7,22.1,15.3,35.1
		c3.6,13,5.5,26.1,5.5,39.3c0,13.5-1.8,26.8-5.5,39.8c-3.6,13-8.8,24.5-15.3,34.6c-7.3,11.1-16.6,19.5-28.1,25.2
		c-11.4,5.7-27.6,8.6-48.4,8.6H25.7v161.7H20h-5.2V23.1v-6.2H21h53.6c18.7,0,34.4,2.9,47.1,8.8C134.3,31.6,144.1,39.9,151,50.6z
		 M141.7,193.6c5.9-9.4,10.6-20.1,14-32.1c3.5-12,5.2-24.2,5.2-36.8c0-12.2-1.7-24.2-5.2-36.2c-3.5-12-8.1-22.7-14-32.1
		c-5.9-9-14.4-16.1-25.5-21.1c-11.1-5-25-7.6-41.6-7.6H25.7v194.5h48.9c20.1,0,34.8-2.5,44.2-7.6
		C128.1,209.6,135.8,202.6,141.7,193.6z"/>
	<path fill="#FFFFFF" stroke="#FFFFFF" stroke-width="0.3317" stroke-miterlimit="10" d="M364.5,16.9v378h-5.7h-5.2V233.1H211.1
		v161.7h-5.2h-5.7v-378h5.7h5.2v206.4h142.5V16.9h5.2H364.5z"/>
	<path fill="#FFFFFF" stroke="#FFFFFF" stroke-width="0.3317" stroke-miterlimit="10" d="M558.9,394.8h-11.4L524,281h-90.5
		l-24.4,113.9h-11.4l76.4-378h8.8L558.9,394.8z M520.9,270.1L478.8,45.4l-43.7,224.6H520.9z M476.7,16.9h0.5h1h0.5h0.5h1H476.7z"/>
	<path fill="#FFFFFF" stroke="#FFFFFF" stroke-width="0.3317" stroke-miterlimit="10" d="M712.2,43.1c12.8,19.1,19.1,40.4,18.7,63.9
		c0,11.1-1.3,21.4-3.9,30.9c-2.6,9.5-6.1,18-10.4,25.5c-4.3,7.5-9.3,13.6-14.8,18.5c-5.5,4.9-11.4,8.3-17.7,10.4
		c7.3,1,15.2,4,23.7,8.8c8.5,4.9,15.2,10.7,20,17.7c6.9,10.1,12.1,21.2,15.6,33.5c3.5,12.3,5.2,25.2,5.2,38.7
		c0,22.5-3.2,40.6-9.6,54.1c-6.4,13.5-14.4,23.9-23.9,31.2c-9.5,7.3-19.9,12.1-31.2,14.6c-11.3,2.4-22.1,3.6-32.5,3.6h-53.5h-6.2
		v-379h65.5c14.9,0,26.3,2.4,34.3,7.3C699.4,27.7,706.3,34.5,712.2,43.1z M602.5,187.7h58.7c8.7,0,16.6-2.2,23.9-6.5
		c7.3-4.3,13.5-10.3,18.7-17.7c5.2-7.5,9.2-16.1,12-25.8c2.8-9.7,4.2-20,4.2-30.8s-1.5-21-4.4-30.8c-2.9-9.7-7-18.3-12.2-25.6
		c-5.2-7.3-11.3-13.1-18.2-17.5c-6.9-4.3-14.6-6.5-22.9-6.5h-59.8V187.7z M651.4,383.7c17,0,31.1-2.5,42.4-7.5
		c11.3-5,20.2-11.8,26.8-20.3c6.6-8.5,11.2-18.4,13.8-29.6c2.6-11.3,3.7-23,3.4-35.1c-0.7-31.9-7.9-55.3-21.6-70.2
		c-13.7-14.9-35.3-22.4-64.7-22.4h-48.9v185.1H651.4z"/>
</g>
<path fill="#FFFFFF" d="M1009.2,130.6c-12.4-0.9-23.9-1.6-35.4-2.6c-2.2-0.2-5-0.8-6.1-2.3c-1.2-1.6-1.9-5.2-0.9-6.7
	c1.3-1.9,4.5-3.8,6.8-3.7c10.3,0.3,20.6,0.9,30.8,2.1c5.6,0.7,5.9-2,6.3-6.2c0.5-4.6-0.6-6.2-5.4-6.5c-13.7-0.6-27.3-1.9-40.9-2.8
	c-5.5-0.4-8.9-2.9-11.3-8c-7.2-15-14.9-29.8-22.6-45c-3.6,1.7-6.9,3.4-10.3,4.8c-4.7,1.9-8.7,0.6-10.4-3.2c-1.8-4-0.3-7.9,4.2-10.1
	c7.8-3.8,15.8-7.2,23.6-11.1c3.5-1.7,4.9-0.7,6.4,2.4c6.8,13.9,14,27.6,20.7,41.4c1.5,3.2,3.5,4.3,6.9,4.5
	c18.8,1.2,37.6,2.6,56.4,3.9c9,0.6,15.5,7.7,15,16.7c-1.1,17.6-2.4,35.1-3.7,52.6c-0.8,9.7-7.8,15.9-17,15.2
	c-9-0.7-14.7-7.5-14.2-17.2C1008.3,143.1,1008.8,137.2,1009.2,130.6z M1051.2,127.8c42.4-22.2,47.6-77.2,10.2-106.8
	c-31.8-25.2-80.6-15.6-99.3,19.7c-1,1.9-2,4.6-1.3,6.3c1.7,4.7,4.3,9.1,7.1,14.6c0.8-2.5,1.3-3.8,1.7-5.2
	c5-15.7,15.2-26.6,30.4-32.9c23.8-9.9,51.9-0.7,65.7,21.4c13,20.8,9.3,47.8-9.8,63.6c-7,5.8-5.7,12.3-6.3,19.4
	C1050.5,127.9,1050.9,127.9,1051.2,127.8z M1030.8,242.6c-5.3-8.2-13.9-10.4-21.6-5.6c-7.8,4.9-9.9,14-4.8,22.3
	c9.2,15,18.6,29.9,28,44.7c4.8,7.6,14.3,9.5,21.9,4.7c15.9-10,31.9-20,47.8-30.1c2.9-1.8,5.2-2.1,8.3-0.4
	c13.7,7.2,27.5,14.1,41.2,21.3c3.1,1.7,4.9,1.6,6.6-1.8c4-7.7,8.5-15.2,12.5-22.9c2.4-4.5,1.2-8.5-2.5-10.6
	c-3.7-2.1-7.7-0.8-10.3,3.5c-1.9,3.1-3.6,6.4-5.5,9.9c-15.2-7.8-30.2-15.1-44.8-23c-5-2.7-9.2-2.8-13.9,0.2
	c-11.6,7.3-23.3,14.3-34.7,21.9c-4.1,2.7-5.9,1.9-8.2-2c-2.1-3.7-3.5-6,1.5-8.8c9-5,17.7-10.6,26.2-16.4c1.9-1.3,3.4-4.6,3.3-7
	c-0.1-1.8-2.7-4.3-4.7-4.9c-1.8-0.5-4.5,0.6-6.3,1.7c-9.9,6-19.6,12.1-30.1,18.7C1037,252.4,1033.9,247.5,1030.8,242.6z
	 M1008.2,285.1c-21.2,42.9,7,90.4,54.6,92.3c40.6,1.6,74.3-34.9,68.6-74.4c-0.3-2.1-1.1-4.9-2.7-5.9c-4.2-2.8-8.9-4.8-14.3-7.6
	c0.8,2.5,1.3,3.8,1.7,5.2c5.2,15.6,3.3,30.5-5.2,44.5c-13.4,22.1-41.5,31.2-65.7,21.4c-22.7-9.2-35.7-33.1-29.5-57.2
	c2.2-8.9-2.6-13.4-6.4-19.4C1008.7,284.6,1008.4,284.8,1008.2,285.1z M1046.5,192c-9.4,2.6-14,10.2-11.7,19
	c2.3,8.9,10.5,13.6,19.9,11.2c17-4.4,34-8.9,51-13.5c8.7-2.4,13.3-10.8,11-19.5c-4.8-18.2-9.6-36.4-14.5-54.6
	c-0.9-3.3-0.4-5.5,2.1-8c10.9-10.9,21.6-22.1,32.5-33c2.5-2.5,3-4.2,0.2-6.9c-6.2-6.1-12-12.6-18.1-18.8c-3.6-3.6-7.7-3.7-10.9-0.8
	c-3.1,2.9-3.1,7.1,0.3,10.9c2.4,2.8,5.1,5.3,7.8,8.2c-11.9,12.2-23.4,24.3-35.3,36c-4.1,4-5.4,8-3.9,13.3
	c3.6,13.2,6.8,26.5,10.6,39.6c1.4,4.7,0.1,6.2-4.4,7.2c-4.1,0.9-6.8,1.5-7.9-4c-2.2-10.1-4.9-20-7.9-29.9c-0.7-2.2-3.4-4.6-5.7-5.2
	c-1.7-0.5-4.9,1.3-6,3c-1,1.5-0.7,4.4-0.2,6.5c2.8,11.2,5.8,22.3,9,34.3C1057.8,189,1052.2,190.4,1046.5,192z M1080.5,226.1
	c34.7,32.9,88.4,20.2,104.4-24.8c13.6-38.3-11.3-81.3-50.7-87.6c-2.1-0.3-5-0.4-6.4,0.8c-3.9,3.2-7.2,7-11.5,11.4
	c2.7,0,4-0.1,5.4-0.1c16.5-0.3,30.1,5.8,41,18.1c17.1,19.4,17.5,48.9,1,69.1c-15.5,19-42.2,24.2-63.4,11.3
	c-7.8-4.8-13.5-1.4-20.4,0.4C1080.2,225.5,1080.3,225.9,1080.5,226.1z M1006.5,184.1c-8.9,2.5-14,11.2-11.8,20.3
	c2.3,9.5,11.4,15.2,20.7,12.9c8.6-2.1,14-11.9,11.6-21C1024.6,187.1,1015.4,181.6,1006.5,184.1z M964.1,198c8.3,5.2,17,3.5,21.9-4.1
	c5-7.7,3-16.9-5.1-22.2c-14.7-9.7-29.5-19.2-44.3-28.7c-7.6-4.9-17-2.6-21.8,5c-10.2,15.8-20.5,31.6-30.6,47.5
	c-1.8,2.9-3.8,4-7.3,3.9c-15.4-0.8-30.9-1.1-46.3-1.8c-3.6-0.2-5.1,0.6-5.2,4.4c-0.3,8.7-1.2,17.4-1.7,26c-0.3,5,2.5,8.2,6.8,8.6
	c4.2,0.4,7.3-2.5,7.9-7.6c0.4-3.7,0.5-7.3,0.8-11.3c17.1,0.6,33.7,0.9,50.3,1.9c5.7,0.3,9.5-1.4,12.5-6c7.4-11.5,15-22.9,22.2-34.5
	c2.5-4.1,4.5-4.3,8.3-1.6c3.5,2.4,5.7,4,2.4,8.6c-6,8.4-11.5,17.1-16.7,26c-1.2,2-1.1,5.6,0,7.7c0.8,1.6,4.2,2.7,6.3,2.4
	c1.8-0.3,3.8-2.5,5-4.3c6.4-9.6,12.6-19.3,19.4-29.7C954.2,191.7,959.1,194.9,964.1,198z M966.5,149.9c1-47.9-44.6-79-88.6-60.5
	c-37.4,15.7-52.5,63.1-30.7,96.5c1.2,1.8,3.1,3.9,4.9,4.2c5,0.7,10,0.6,16.2,0.8c-1.8-1.9-2.8-3-3.7-4c-11.3-12-15.9-26.2-14.1-42.5
	c2.8-25.7,24.4-45.8,50.5-47.2c24.5-1.3,46.3,14.9,51,39.3c1.7,9,8,11,14,14.9C966.2,150.5,966.5,150.2,966.5,149.9z M983,246.7
	c7.4-6.4,8.4-15.2,2.6-22.2c-5.9-7.1-15.2-7.9-22.8-1.8c-13.6,11.2-27.1,22.4-40.6,33.7c-6.9,5.8-7.5,15.4-1.7,22.4
	c12.1,14.5,24,29,36.2,43.4c2.2,2.6,2.7,4.8,1.5,8.1c-5.3,14.5-10.3,29.1-15.6,43.6c-1.2,3.3-1,5,2.7,6.3c8.2,2.9,16.2,6.4,24.4,9.4
	c4.7,1.7,8.6,0.1,10.2-3.9c1.6-3.9-0.2-7.7-4.9-9.8c-3.4-1.5-6.8-2.7-10.6-4.2c5.7-16.1,10.9-31.9,16.8-47.5c2-5.4,1.5-9.5-2-13.7
	c-8.8-10.5-17.3-21.2-26.3-31.5c-3.2-3.7-2.7-5.6,0.9-8.4c3.4-2.6,5.5-4.2,8.9,0.3c6.2,8.2,12.9,16.1,19.8,23.7
	c1.5,1.7,5.1,2.7,7.4,2.3c1.7-0.3,3.9-3.2,4.2-5.3c0.3-1.8-1.2-4.3-2.6-6c-7.2-9-14.7-17.8-22.6-27.3
	C974,254.2,978.6,250.5,983,246.7z M937.8,230.1c-45.4-15.2-88.7,19-84.2,66.5c3.8,40.4,44.5,69,82.9,58.1c2-0.6,4.7-1.8,5.5-3.4
	c2.2-4.5,3.5-9.4,5.6-15.2c-2.4,1.2-3.6,1.8-4.9,2.4c-14.8,7.2-29.8,7.4-44.8,0.8c-23.7-10.4-36.5-37-30-62.3
	c6.1-23.7,28.1-39.8,52.7-36.9c9.1,1,12.9-4.4,18.4-8.9C938.4,230.5,938.1,230.2,937.8,230.1z"/>
</svg>
